<svg width="80" height="80" viewBox="0 0 80 80" fill="none" xmlns="http://www.w3.org/2000/svg">
<path fill-rule="evenodd" clip-rule="evenodd" d="M24.6927 3.04482C29.5457 1.03463 34.7471 0 40 0C45.2529 0 50.4543 1.03463 55.3073 3.04482C60.1604 5.05501 64.5699 8.00138 68.2843 11.7157C71.9986 15.4301 74.945 19.8396 76.9552 24.6927C78.9654 29.5457 80 34.7471 80 40C80 50.6087 75.7857 60.7828 68.2843 68.2843C60.7828 75.7857 50.6087 80 40 80C34.7471 80 29.5457 78.9654 24.6927 76.9552C19.8396 74.945 15.4301 71.9986 11.7157 68.2843C4.21427 60.7828 0 50.6087 0 40C0 29.3913 4.21427 19.2172 11.7157 11.7157C15.4301 8.00138 19.8396 5.05501 24.6927 3.04482ZM40.3571 62.1429C52.3891 62.1429 62.1429 52.3891 62.1429 40.3571C62.1429 28.3252 52.3891 18.5714 40.3571 18.5714C28.3252 18.5714 18.5714 28.3252 18.5714 40.3571C18.5714 52.3891 28.3252 62.1429 40.3571 62.1429Z" fill="#3F2AFF"/>
<g clip-path="url(#clip0)">
<path d="M39.9993 43.113V33.8516C39.7367 33.8758 39.4772 33.9168 39.2131 33.929H31.6516C31.2327 33.929 30.8927 34.2689 30.8927 34.6878V35.4467H28.6161C28.1972 35.4467 27.8572 35.7867 27.8572 36.2056V40.7589C27.8572 41.1778 28.1972 41.5178 28.6161 41.5178H30.8927V42.2767C30.8927 42.6956 31.2327 43.0355 31.6516 43.0355H32.1115L35.1622 51.1677C35.3489 51.6549 35.7662 52.0086 36.2792 52.1118C36.3809 52.133 36.4826 52.1436 36.5828 52.1436C36.988 52.1436 37.3736 51.9828 37.6498 51.6944L39.4726 49.8867C39.9386 49.4208 40.0494 48.6938 39.7519 48.1307L37.2051 43.0355H39.2207C39.4817 43.0477 39.7397 43.0887 39.9993 43.113Z" fill="#2E2B44"/>
<path d="M52.0178 28.2247C52.0026 28.1989 51.989 28.1777 51.9693 28.1534C51.8858 28.0471 51.7811 27.9606 51.652 27.9105C51.6475 27.909 51.6445 27.903 51.6399 27.9014C51.6247 27.8969 51.6111 27.9045 51.5959 27.8999C51.5276 27.8802 51.4593 27.8574 51.3834 27.8574C51.3318 27.8574 51.2863 27.8772 51.2362 27.8878C51.2073 27.8938 51.18 27.8954 51.1512 27.9045C51.0207 27.947 50.9083 28.0198 50.8188 28.12C50.8127 28.1261 50.8036 28.1276 50.7975 28.1337C48.4314 31.0068 45.1317 32.9283 41.5179 33.6325V43.3325C45.1317 44.0368 48.4314 45.9567 50.7975 48.8299C50.8036 48.8375 50.8142 48.8405 50.8218 48.8496C50.8749 48.9088 50.9402 48.9558 51.01 48.9953C51.0328 49.009 51.051 49.0287 51.0738 49.0393C51.1694 49.0803 51.2726 49.1061 51.3834 49.1061C51.4699 49.1061 51.5549 49.0909 51.6399 49.0621C51.6445 49.0606 51.6475 49.0545 51.652 49.053C51.7811 49.0029 51.8858 48.9179 51.9693 48.8101C51.9875 48.7859 52.0011 48.7646 52.0178 48.7388C52.0907 48.6219 52.1423 48.4929 52.1423 48.3472V28.6163C52.1423 28.4706 52.0907 28.3416 52.0178 28.2247Z" fill="#2E2B44"/>
</g>
<defs>
<clipPath id="clip0">
<rect width="24.2857" height="24.2857" fill="white" transform="translate(27.8572 27.8574)"/>
</clipPath>
</defs>
</svg>
