<svg width="80" height="80" viewBox="0 0 80 80" fill="none" xmlns="http://www.w3.org/2000/svg">
<g clip-path="url(#clip0)">
<path d="M37.9097 43.3679C37.9097 43.6778 38.1609 43.9291 38.4709 43.9291H39.1893C39.0672 43.5683 39.0232 43.1857 39.0602 42.8066H38.4709C38.1609 42.8066 37.9097 43.0579 37.9097 43.3679Z" fill="#2E2B44"/>
<path d="M42.3527 24.3261C41.9158 24.2329 41.4598 24.3172 41.0851 24.5604C40.7104 24.8035 40.4477 25.1856 40.3547 25.6225L38.7384 35.9266C38.6658 36.3187 38.3296 36.6072 37.931 36.6194C37.5323 36.6315 37.1792 36.3641 37.0828 35.9771L35.1017 26.8628C35.0133 26.2535 34.5994 25.7409 34.0222 25.5263C33.4451 25.3117 32.7968 25.4293 32.3318 25.8329C31.8668 26.2365 31.6592 26.8617 31.7904 27.4633L33.6706 37.7562C33.8156 38.5399 33.806 39.3445 33.6425 40.1246C34.2164 39.5581 34.8297 39.033 35.4777 38.5531C36.1519 38.0389 36.9757 37.759 37.8236 37.7562H41.5726L43.6491 26.3297C43.7439 25.892 43.6605 25.4345 43.4172 25.0585C43.1739 24.6825 42.7908 24.4189 42.3527 24.3261Z" fill="#2E2B44"/>
<path d="M43.1222 45.1187C42.8293 45.3309 42.4975 45.4835 42.1457 45.5677C42.2219 45.6901 42.2894 45.8176 42.3477 45.9494C42.4232 46.1223 42.4068 46.3215 42.3039 46.4797C42.2011 46.6379 42.0257 46.7339 41.837 46.7351C41.6152 46.7336 41.415 46.6017 41.3263 46.3983C40.9681 45.5776 40.1565 45.0483 39.261 45.0514H38.4697C37.5398 45.0514 36.786 44.2976 36.786 43.3677C36.786 42.4379 37.5398 41.6841 38.4697 41.6841H40.1534C41.3932 41.6841 42.3983 40.679 42.3983 39.4392V38.8779H37.8243C37.2171 38.8779 36.6263 39.0749 36.1406 39.4392C33.9406 41.0779 31.735 43.5193 31.735 46.3029C31.7334 47.5573 32.126 48.7804 32.8574 49.7994L35.6636 53.6718C36.0898 54.2633 36.2891 54.9884 36.2248 55.7147H45.7656C45.7656 54.1881 45.6141 54.5922 48.0835 50.3887C48.7329 49.0758 49.0909 47.638 49.1329 46.1739V43.581L47.8253 45.6631C47.3097 46.5519 46.3161 47.0504 45.2954 46.9322C44.2746 46.8141 43.4212 46.1018 43.1222 45.1187Z" fill="#2E2B44"/>
<path d="M40.18 42.806C40.0771 43.2767 40.2209 43.7674 40.5616 44.1081C40.9023 44.4487 41.393 44.5926 41.8637 44.4897C42.6774 44.3101 42.9861 43.6759 43.407 42.9575C45.6968 39.2983 45.6126 39.4443 45.6519 39.332C46.1673 38.6081 45.999 37.6036 45.2759 37.0871C44.9118 36.8835 44.4813 36.8342 44.0806 36.9502C43.6799 37.0662 43.3423 37.3378 43.1433 37.7045L42.9917 37.9458C43.3139 38.1471 43.5124 38.4976 43.5193 38.8774V39.4387C43.5193 41.2875 42.0288 42.7906 40.18 42.806Z" fill="#2E2B44"/>
<path d="M49.0221 38.8781C48.2933 38.4629 47.366 38.7135 46.9456 39.4393C46.6201 39.9669 47.1701 39.0353 44.3696 43.5587C44.1487 43.9072 44.076 44.3294 44.1675 44.7317C44.3148 45.323 44.8127 45.7613 45.4179 45.8325C46.0231 45.9036 46.6091 45.5926 46.8895 45.0516L49.4711 40.949C49.9189 40.2532 49.7179 39.326 49.0221 38.8781Z" fill="#2E2B44"/>
</g>
<path fill-rule="evenodd" clip-rule="evenodd" d="M24.6927 3.04482C29.5457 1.03463 34.7471 0 40 0C45.2529 0 50.4543 1.03463 55.3073 3.04482C60.1604 5.05501 64.5699 8.00138 68.2843 11.7157C71.9986 15.4301 74.945 19.8396 76.9552 24.6927C78.9654 29.5457 80 34.7471 80 40C80 50.6087 75.7857 60.7828 68.2843 68.2843C60.7828 75.7857 50.6087 80 40 80C34.7471 80 29.5457 78.9654 24.6927 76.9552C19.8396 74.945 15.4301 71.9986 11.7157 68.2843C4.21427 60.7828 0 50.6087 0 40C0 29.3913 4.21427 19.2172 11.7157 11.7157C15.4301 8.00138 19.8396 5.05501 24.6927 3.04482ZM40.3571 62.1429C52.3891 62.1429 62.1429 52.3891 62.1429 40.3571C62.1429 28.3252 52.3891 18.5714 40.3571 18.5714C28.3252 18.5714 18.5714 28.3252 18.5714 40.3571C18.5714 52.3891 28.3252 62.1429 40.3571 62.1429Z" fill="#3F2AFF"/>
<defs>
<clipPath id="clip0">
<rect width="31.4286" height="31.4286" fill="white" transform="translate(25 24.2861)"/>
</clipPath>
</defs>
</svg>
